<?xml version="1.0" encoding="UTF-8" standalone="no"?>
<!-- Created with Inkscape (http://www.inkscape.org/) -->

<svg version="1.1" id="svg2" width="2666.6667" height="2666.6667" viewBox="0 0 2666.6667 2666.6667"
    xmlns="http://www.w3.org/2000/svg">
  <defs id="defs6" />
  <g id="g8" transform="matrix(1.3333333,0,0,-1.3333333,0,2666.6667)">
    <g id="g10" transform="scale(0.1)">
      <path d="m 8578.49,10413.1 c -8.74,-13 -17.83,-25.3 -24.96,-35.1 l -7.66,-10.6 c -150.8,-198.7 -326.19,-291.4 -550.78,-291.4 -131.9,0 -279.67,31.8 -451.68,97 -54,20.5 -108.91,37.2 -163.27,49.9 -84.31,19.4 -169.16,29.2 -252.57,29.2 -113.01,0 -225.31,-18 -334.22,-53.4 H 6793 l -17.11,-5.9 c -30.49,-10.5 -59.72,-21.9 -87.88,-34.2 -160.25,78.4 -388.22,154.5 -555.06,65.9 0,0 -22.28,-151.9 -102.49,-69.2 -64.7,66.7 -129.59,130.9 -159,222 -210.68,650.7 916.37,562.5 1252.36,520.1 509.25,-64.5 1008.69,-229.6 1454.67,-484.3"
          style="fill:#100f0d;fill-opacity:1;fill-rule:nonzero;stroke:none" id="path12" />
      <path d="m 8588.47,10250.2 c -11.41,-13.6 -23.17,-26.4 -35.12,-38.9 11.95,12.5 23.53,25.3 35.12,38.9"
          style="fill:#100f0d;fill-opacity:1;fill-rule:nonzero;stroke:none" id="path14" />
      <path d="m 6896.38,9734.3 c -59,0 -106.95,48 -106.95,107 0,59 47.95,106.9 106.95,106.9 59.17,0 106.95,-47.9 106.95,-106.9 0,-59 -47.78,-107 -106.95,-107 z M 14112.3,12177 c -119.4,0 -234.6,-18.5 -234.6,-18.5 -1942.8,-623.9 -4580.88,208 -4871.96,-962.6 -91.44,-367.9 -202.84,-642.4 -334.92,-837.2 -10.16,-15.3 -20.68,-29.9 -31.2,-44.2 v -0.2 c -16.75,-22.6 -33.68,-44 -51.15,-64.1 -11.59,-13.6 -23.17,-26.4 -35.12,-38.9 -5.88,-6.2 -11.76,-12.3 -17.82,-18.2 -3.03,-3.2 -6.24,-6.2 -9.27,-8.9 -8.91,-8.9 -18,-17.3 -27.09,-25.5 -12.3,-10.8 -24.78,-21.2 -37.26,-31.2 -44.02,-34.7 -89.66,-63.4 -137.07,-86.2 -13.72,-6.6 -27.27,-12.7 -41.17,-18.4 -90.02,-36.5 -186.27,-53.8 -288.58,-53.8 -37.43,0 -75.76,2.3 -114.79,6.7 -29.42,3.4 -59.18,8.1 -89.48,14 -90.73,17.2 -185.91,45.4 -285.37,83.2 -51.16,19.4 -100.89,34.4 -149.37,45.6 -80.04,18.6 -156.32,26.6 -228.51,26.6 -58.47,0 -114.08,-5.4 -167.02,-14.6 -13.19,-2.3 -26.03,-5 -38.86,-7.7 -38.68,-8.6 -75.58,-19.1 -110.87,-31.2 0,0 0,0 -0.18,0 -307.29,-105.5 -486.07,-330.6 -486.07,-330.6 -681.79,-89.2 -699.62,-323.9 -699.62,-323.9 79.5,41.2 182.52,63.3 303.2,63.3 366.47,0 896.04,-203.6 1425.79,-693.1 604.6,-558.6 1715.44,-598.2 2017.03,-598.2 49.73,0 77.36,1.1 77.36,1.1 422.08,-142.9 886.97,-219.6 1311.57,-219.6 158.1,0 310.5,10.7 453.1,32.5 81.4,12.4 170,17.8 262,17.8 502.3,0 1109.9,-159.7 1253.1,-205 28.7,-9.1 63.4,-13 101.4,-13 185.7,0 445.1,94.8 415.5,146.7 -35.7,62.4 -668.5,151.5 -1176.5,454.5 -508,303 -623.8,276.3 -944.7,481.3 -320.8,205 -276.2,430.8 -276.2,430.8 606,374.3 1342.7,1734.9 1342.7,1734.9 0,0 1022,0 1853.7,623.8 549.4,411.9 300.6,482 68.3,482"
          style="fill:#100f0d;fill-opacity:1;fill-rule:nonzero;stroke:none" id="path16" />
    </g>
  </g>
</svg>
